{
  "accessors": [
    {
      "bufferView": 2,
      "componentType": 5126,
      "count": 168,
      "max": [
        1.0618213415145874,
        1.0,
        1.0
      ],
      "min": [
        -1.0,
        -1.0,
        -1.0
      ],
      "type": "VEC3"
    },
    {
      "bufferView": 2,
      "byteOffset": 2016,
      "componentType": 5126,
      "count": 168,
      "max": [
        1.0,
        1.0,
        1.0
      ],
      "min": [
        -1.0,
        -1.0,
        -1.0
      ],
      "type": "VEC3"
    },
    {
      "bufferView": 1,
      "componentType": 5126,
      "count": 168,
      "max": [
        0.8750000596046448,
        1.0
      ],
      "min": [
        0.125,
        0.0
      ],
      "type": "VEC2"
    },
    {
      "bufferView": 0,
      "componentType": 5125,
      "count": 528,
      "type": "SCALAR"
    },
    {
      "bufferView": 2,
      "byteOffset": 4032,
      "componentType": 5126,
      "count": 1313,
      "max": [
        1.0799016952514648,
        1.0,
        1.0
      ],
      "min": [
        0.8902145028114319,
        -1.0,
        -1.0
      ],
      "type": "VEC3"
    },
    {
      "bufferView": 2,
      "byteOffset": 19788,
      "componentType": 5126,
      "count": 1313,
      "max": [
        1.0,
        1.0,
        1.0
      ],
      "min": [
        -1.0,
        -1.0,
        -1.0
      ],
      "type": "VEC3"
    },
    {
      "bufferView": 1,
      "byteOffset": 1344,
      "componentType": 5126,
      "count": 1313,
      "max": [
        0.9271638989448547,
        0.9764692187309265
      ],
      "min": [
        0.027803495526313782,
        -0.021007776260375977
      ],
      "type": "VEC2"
    },
    {
      "bufferView": 0,
      "byteOffset": 2112,
      "componentType": 5125,
      "count": 2688,
      "type": "SCALAR"
    },
    {
      "bufferView": 2,
      "byteOffset": 35544,
      "componentType": 5126,
      "count": 361,
      "max": [
        1.1845309734344482,
        1.0,
        1.0
      ],
      "min": [
        -1.0,
        -1.0,
        -1.0
      ],
      "type": "VEC3"
    },
    {
      "bufferView": 2,
      "byteOffset": 39876,
      "componentType": 5126,
      "count": 361,
      "max": [
        0.0,
        1.0,
        1.0
      ],
      "min": [
        -1.0,
        -1.0,
        -1.0
      ],
      "type": "VEC3"
    },
    {
      "bufferView": 1,
      "byteOffset": 11848,
      "componentType": 5126,
      "count": 361,
      "max": [
        1.6541552543640137,
        1.5367555618286133
      ],
      "min": [
        -0.6541550159454346,
        -0.36353254318237305
      ],
      "type": "VEC2"
    },
    {
      "bufferView": 0,
      "byteOffset": 12864,
      "componentType": 5125,
      "count": 1332,
      "type": "SCALAR"
    },
    {
      "bufferView": 2,
      "byteOffset": 44208,
      "componentType": 5126,
      "count": 769,
      "max": [
        1.1845309734344482,
        1.0,
        1.0
      ],
      "min": [
        0.9177847504615784,
        -1.0,
        -1.0
      ],
      "type": "VEC3"
    },
    {
      "bufferView": 2,
      "byteOffset": 53436,
      "componentType": 5126,
      "count": 769,
      "max": [
        1.0,
        1.0,
        1.0
      ],
      "min": [
        -1.0,
        -1.0,
        -1.0
      ],
      "type": "VEC3"
    },
    {
      "bufferView": 1,
      "byteOffset": 14736,
      "componentType": 5126,
      "count": 769,
      "max": [
        0.951639711856842,
        0.878507673740387
      ],
      "min": [
        0.08776390552520752,
        0.11072832345962524
      ],
      "type": "VEC2"
    },
    {
      "bufferView": 0,
      "byteOffset": 18192,
      "componentType": 5125,
      "count": 1818,
      "type": "SCALAR"
    },
    {
      "bufferView": 2,
      "byteOffset": 62664,
      "componentType": 5126,
      "count": 31,
      "max": [
        1.126062273979187,
        -0.02926349639892578,
        1.0
      ],
      "min": [
        -1.0,
        -1.0,
        -1.0
      ],
      "type": "VEC3"
    },
    {
      "bufferView": 2,
      "byteOffset": 63036,
      "componentType": 5126,
      "count": 31,
      "max": [
        0.0,
        0.0,
        1.0
      ],
      "min": [
        0.0,
        -1.0,
        -0.0
      ],
      "type": "VEC3"
    },
    {
      "bufferView": 1,
      "byteOffset": 20888,
      "componentType": 5126,
      "count": 31,
      "max": [
        0.4963420629501343,
        0.5
      ],
      "min": [
        0.125,
        0.24999994039535522
      ],
      "type": "VEC2"
    },
    {
      "bufferView": 0,
      "byteOffset": 25464,
      "componentType": 5125,
      "count": 84,
      "type": "SCALAR"
    },
    {
      "bufferView": 2,
      "byteOffset": 63408,
      "componentType": 5126,
      "count": 1171,
      "max": [
        1.126062273979187,
        1.0,
        1.0006293058395386
      ],
      "min": [
        0.8428088426589966,
        -1.0,
        -1.0
      ],
      "type": "VEC3"
    },
    {
      "bufferView": 2,
      "byteOffset": 77460,
      "componentType": 5126,
      "count": 1171,
      "max": [
        1.0,
        1.0,
        1.0
      ],
      "min": [
        -1.0,
        -1.0,
        -1.0
      ],
      "type": "VEC3"
    },
    {
      "bufferView": 1,
      "byteOffset": 21136,
      "componentType": 5126,
      "count": 1171,
      "max": [
        1.0293080806732178,
        1.0159980058670044
      ],
      "min": [
        0.00420052744448185,
        -0.009843826293945313
      ],
      "type": "VEC2"
    },
    {
      "bufferView": 0,
      "byteOffset": 25800,
      "componentType": 5125,
      "count": 2640,
      "type": "SCALAR"
    },
    {
      "bufferView": 2,
      "byteOffset": 91512,
      "componentType": 5126,
      "count": 150,
      "max": [
        1.075762152671814,
        1.0,
        1.0006293058395386
      ],
      "min": [
        -1.0,
        -1.0,
        -1.0
      ],
      "type": "VEC3"
    },
    {
      "bufferView": 2,
      "byteOffset": 93312,
      "componentType": 5126,
      "count": 150,
      "max": [
        0.0,
        1.0,
        1.0
      ],
      "min": [
        -1.0,
        0.0,
        -1.0
      ],
      "type": "VEC3"
    },
    {
      "bufferView": 1,
      "byteOffset": 30504,
      "componentType": 5126,
      "count": 150,
      "max": [
        0.9906183481216431,
        0.9953781366348267
      ],
      "min": [
        0.00938170775771141,
        0.04524296522140503
      ],
      "type": "VEC2"
    },
    {
      "bufferView": 0,
      "byteOffset": 36360,
      "componentType": 5125,
      "count": 564,
      "type": "SCALAR"
    }
  ],
  "asset": {
    "extras": {
      "author": "dimitrovicdenis (https://sketchfab.com/dimitrovicdenis)",
      "license": "CC-BY-4.0 (http://creativecommons.org/licenses/by/4.0/)",
      "source": "https://sketchfab.com/3d-models/building02-6cf143e247bb4501bdb509bd665d38b1",
      "title": "Building02"
    },
    "generator": "Sketchfab-16.14.0",
    "version": "2.0"
  },
  "bufferViews": [
    {
      "buffer": 0,
      "byteLength": 38616,
      "name": "floatBufferViews",
      "target": 34963
    },
    {
      "buffer": 0,
      "byteLength": 31704,
      "byteOffset": 38616,
      "byteStride": 8,
      "name": "floatBufferViews",
      "target": 34962
    },
    {
      "buffer": 0,
      "byteLength": 95112,
      "byteOffset": 70320,
      "byteStride": 12,
      "name": "floatBufferViews",
      "target": 34962
    }
  ],
  "buffers": [
    {
      "byteLength": 165432,
      "uri": "scene.bin"
    }
  ],
  "extensionsUsed": [
    "KHR_materials_specular"
  ],
  "images": [
    {
      "uri": "textures/Material.014_baseColor.jpeg"
    },
    {
      "uri": "textures/Material.015_baseColor.jpeg"
    },
    {
      "uri": "textures/Material.012_baseColor.jpeg"
    },
    {
      "uri": "textures/Material.013_baseColor.jpeg"
    },
    {
      "uri": "textures/Material.010_baseColor.jpeg"
    }
  ],
  "materials": [
    {
      "doubleSided": true,
      "name": "Material.014",
      "pbrMetallicRoughness": {
        "baseColorTexture": {
          "index": 0
        },
        "metallicFactor": 0.99005
      }
    },
    {
      "doubleSided": true,
      "extensions": {
        "KHR_materials_specular": {
          "specularColorFactor": [
            1.0,
            1.0,
            1.0
          ],
          "specularFactor": 0.2549256774888592
        }
      },
      "name": "Material.015",
      "pbrMetallicRoughness": {
        "baseColorTexture": {
          "index": 1
        },
        "metallicFactor": 0.40716141147822704,
        "roughnessFactor": 0.44978741699525004
      }
    },
    {
      "doubleSided": true,
      "name": "Material.012",
      "pbrMetallicRoughness": {
        "baseColorTexture": {
          "index": 2
        },
        "metallicFactor": 0.0,
        "roughnessFactor": 0.5
      }
    },
    {
      "doubleSided": true,
      "name": "Material.013",
      "pbrMetallicRoughness": {
        "baseColorTexture": {
          "index": 3
        },
        "metallicFactor": 0.542289
      }
    },
    {
      "doubleSided": true,
      "name": "Material.009",
      "pbrMetallicRoughness": {
        "baseColorFactor": [
          0.8,
          0.8,
          0.8,
          1.0
        ],
        "metallicFactor": 0.0,
        "roughnessFactor": 0.5
      }
    },
    {
      "doubleSided": true,
      "name": "Material.010",
      "pbrMetallicRoughness": {
        "baseColorTexture": {
          "index": 4
        },
        "metallicFactor": 0.527363
      }
    },
    {
      "doubleSided": true,
      "name": "Material.011",
      "pbrMetallicRoughness": {
        "baseColorTexture": {
          "index": 0
        },
        "roughnessFactor": 0.992537
      }
    }
  ],
  "meshes": [
    {
      "name": "Object_0",
      "primitives": [
        {
          "attributes": {
            "NORMAL": 1,
            "POSITION": 0,
            "TEXCOORD_0": 2
          },
          "indices": 3,
          "material": 0,
          "mode": 4
        }
      ]
    },
    {
      "name": "Object_1",
      "primitives": [
        {
          "attributes": {
            "NORMAL": 5,
            "POSITION": 4,
            "TEXCOORD_0": 6
          },
          "indices": 7,
          "material": 1,
          "mode": 4
        }
      ]
    },
    {
      "name": "Object_2",
      "primitives": [
        {
          "attributes": {
            "NORMAL": 9,
            "POSITION": 8,
            "TEXCOORD_0": 10
          },
          "indices": 11,
          "material": 2,
          "mode": 4
        }
      ]
    },
    {
      "name": "Object_3",
      "primitives": [
        {
          "attributes": {
            "NORMAL": 13,
            "POSITION": 12,
            "TEXCOORD_0": 14
          },
          "indices": 15,
          "material": 3,
          "mode": 4
        }
      ]
    },
    {
      "name": "Object_4",
      "primitives": [
        {
          "attributes": {
            "NORMAL": 17,
            "POSITION": 16,
            "TEXCOORD_0": 18
          },
          "indices": 19,
          "material": 4,
          "mode": 4
        }
      ]
    },
    {
      "name": "Object_5",
      "primitives": [
        {
          "attributes": {
            "NORMAL": 21,
            "POSITION": 20,
            "TEXCOORD_0": 22
          },
          "indices": 23,
          "material": 5,
          "mode": 4
        }
      ]
    },
    {
      "name": "Object_6",
      "primitives": [
        {
          "attributes": {
            "NORMAL": 25,
            "POSITION": 24,
            "TEXCOORD_0": 26
          },
          "indices": 27,
          "material": 6,
          "mode": 4
        }
      ]
    }
  ],
  "nodes": [
    {
      "children": [
        1
      ],
      "matrix": [
        0.28379303216934204,
        -4.563739952692894e-17,
        -4.5637399526928965e-17,
        0.0,
        -4.5637399526928953e-17,
        1.73773121815893e-17,
        -0.28379303216934204,
        0.0,
        4.5637399526928953e-17,
        0.28379303216934204,
        1.73773121815893e-17,
        0.0,
        0.0,
        0.0,
        0.0,
        1.0
      ],
      "name": "Sketchfab_model"
    },
    {
      "children": [
        2
      ],
      "name": "root"
    },
    {
      "children": [
        3,
        6,
        9
      ],
      "matrix": [
        1.0,
        0.0,
        0.0,
        0.0,
        0.0,
        2.220446049250313e-16,
        1.0,
        0.0,
        0.0,
        -1.0,
        2.220446049250313e-16,
        0.0,
        0.0,
        0.0,
        0.0,
        1.0
      ],
      "name": "GLTF_SceneRootNode"
    },
    {
      "children": [
        4,
        5
      ],
      "matrix": [
        3.640953540802002,
        0.0,
        0.0,
        0.0,
        0.0,
        3.92171311378479,
        0.0,
        0.0,
        0.0,
        0.0,
        3.630530595779419,
        0.0,
        0.1414857804775238,
        3.8765785694122314,
        -64.09161376953125,
        1.0
      ],
      "name": "Cube.004_0"
    },
    {
      "mesh": 0,
      "name": "Object_4"
    },
    {
      "mesh": 1,
      "name": "Object_5"
    },
    {
      "children": [
        7,
        8
      ],
      "matrix": [
        3.794339418411255,
        0.0,
        0.0,
        0.0,
        0.0,
        3.3849780559539795,
        0.0,
        0.0,
        0.0,
        0.0,
        5.144129753112793,
        0.0,
        -0.11196756362915039,
        3.2851901054382324,
        -55.333961486816406,
        1.0
      ],
      "name": "Cube.003_1"
    },
    {
      "mesh": 2,
      "name": "Object_7"
    },
    {
      "mesh": 3,
      "name": "Object_8"
    },
    {
      "children": [
        10,
        11,
        12
      ],
      "matrix": [
        3.379204034805298,
        0.0,
        0.0,
        0.0,
        0.0,
        8.481283187866211,
        0.0,
        0.0,
        0.0,
        0.0,
        5.2274556159973145,
        0.0,
        0.35581454634666443,
        8.381028175354004,
        -44.9810791015625,
        1.0
      ],
      "name": "Cube.002_2"
    },
    {
      "mesh": 4,
      "name": "Object_10"
    },
    {
      "mesh": 5,
      "name": "Object_11"
    },
    {
      "mesh": 6,
      "name": "Object_12"
    }
  ],
  "samplers": [
    {
      "magFilter": 9729,
      "minFilter": 9987,
      "wrapS": 10497,
      "wrapT": 10497
    }
  ],
  "scene": 0,
  "scenes": [
    {
      "name": "Sketchfab_Scene",
      "nodes": [
        0
      ]
    }
  ],
  "textures": [
    {
      "sampler": 0,
      "source": 0
    },
    {
      "sampler": 0,
      "source": 1
    },
    {
      "sampler": 0,
      "source": 2
    },
    {
      "sampler": 0,
      "source": 3
    },
    {
      "sampler": 0,
      "source": 4
    }
  ]
}
